<svg xmlns="http://www.w3.org/2000/svg" xmlns:xlink="http://www.w3.org/1999/xlink" width="500" zoomAndPan="magnify" viewBox="0 0 375 374.999991" height="500" preserveAspectRatio="xMidYMid meet" version="1.0"><rect x="-37.5" width="450" fill="#ffffff" y="-37.499999" height="449.999989" fill-opacity="1"/><rect x="-37.5" width="450" fill="#ffffff" y="-37.499999" height="449.999989" fill-opacity="1"/><rect x="-37.5" width="450" fill="#ffffff" y="-37.499999" height="449.999989" fill-opacity="1"/><path fill="#231f20" d="M 193.414062 200.171875 C 191.058594 200.171875 189.152344 198.261719 189.152344 195.90625 C 189.152344 193.550781 191.058594 191.644531 193.414062 191.644531 C 195.765625 191.644531 197.671875 193.550781 197.671875 195.90625 C 197.671875 198.261719 195.765625 200.171875 193.414062 200.171875 Z M 223.269531 174.332031 C 222.785156 177.945312 219.699219 180.738281 215.953125 180.738281 C 211.875 180.738281 208.566406 177.425781 208.566406 173.34375 C 208.566406 169.257812 211.875 165.949219 215.953125 165.949219 C 216.171875 165.949219 216.382812 165.960938 216.597656 165.980469 C 211.710938 161.820312 205.386719 159.304688 198.472656 159.304688 C 183.015625 159.304688 170.484375 171.847656 170.484375 187.320312 C 170.484375 202.796875 183.015625 215.339844 198.472656 215.339844 C 213.929688 215.339844 226.460938 202.796875 226.460938 187.320312 C 226.460938 182.632812 225.304688 178.214844 223.269531 174.332031 " fill-opacity="1" fill-rule="nonzero"/><path fill="#89cf25" d="M 228.929688 168.464844 C 228.171875 144.125 207.847656 125.007812 183.53125 125.765625 C 168.742188 126.230469 155.882812 133.941406 148.25 145.386719 C 156.351562 139.21875 166.25 135.855469 176.5 135.855469 C 177.59375 135.855469 178.6875 135.894531 179.773438 135.972656 C 181.109375 135.808594 182.46875 135.699219 183.839844 135.65625 C 206.484375 134.949219 225.667969 151.484375 228.808594 173.417969 C 228.9375 171.789062 228.984375 170.132812 228.929688 168.464844 " fill-opacity="1" fill-rule="nonzero"/><path fill="#f7c80b" d="M 147.835938 162.339844 C 148.808594 161.503906 149.816406 160.710938 150.847656 159.964844 C 151.761719 158.980469 152.730469 158.027344 153.75 157.113281 C 170.640625 142.003906 195.949219 142.324219 212.441406 157.105469 C 211.496094 155.777344 210.46875 154.476562 209.355469 153.230469 C 193.148438 135.074219 165.300781 133.511719 147.164062 149.738281 C 136.128906 159.609375 131.230469 173.789062 132.734375 187.472656 C 134.941406 177.714844 140.214844 168.894531 147.835938 162.339844 " fill-opacity="1" fill-rule="nonzero"/><path fill="#f0441d" d="M 184.582031 154.160156 C 160.503906 150.679688 138.167969 167.398438 134.695312 191.503906 C 132.582031 206.160156 137.929688 220.171875 147.863281 229.6875 C 142.765625 219.804688 141.359375 208.550781 143.925781 197.605469 C 143.972656 197.394531 144.027344 197.183594 144.082031 196.972656 C 144.152344 195.625 144.28125 194.273438 144.476562 192.914062 C 147.714844 170.472656 167.308594 154.429688 189.433594 155.144531 C 187.851562 154.734375 186.234375 154.398438 184.582031 154.160156 " fill-opacity="1" fill-rule="nonzero"/><path fill="#ed1346" d="M 162.949219 230.253906 C 162.851562 230.058594 162.757812 229.863281 162.664062 229.667969 C 161.851562 228.59375 161.085938 227.472656 160.363281 226.304688 C 148.429688 207.03125 153.140625 182.136719 170.546875 168.441406 C 169.074219 169.148438 167.617188 169.933594 166.199219 170.8125 C 145.519531 183.640625 139.144531 210.820312 151.960938 231.519531 C 159.753906 244.105469 172.847656 251.398438 186.566406 252.296875 C 176.3125 248.007812 168.011719 240.289062 162.949219 230.253906 " fill-opacity="1" fill-rule="nonzero"/><path fill="#9a158e" d="M 216.914062 246.820312 C 210.3125 246.820312 203.851562 245.425781 197.886719 242.757812 C 196.578125 242.457031 195.269531 242.09375 193.972656 241.664062 C 172.453125 234.578125 160.078125 212.476562 164.617188 190.785156 C 163.941406 192.273438 163.332031 193.8125 162.808594 195.398438 C 155.207031 218.53125 167.773438 243.453125 190.882812 251.066406 C 204.9375 255.695312 219.652344 252.851562 230.738281 244.710938 C 226.25 246.109375 221.617188 246.820312 216.914062 246.820312 " fill-opacity="1" fill-rule="nonzero"/><path fill="#383494" d="M 233.242188 230.140625 C 232.058594 230.742188 230.835938 231.300781 229.578125 231.804688 C 208.542969 240.21875 184.871094 231.253906 174.421875 211.714844 C 174.859375 213.292969 175.378906 214.863281 176 216.414062 C 185.027344 239.027344 210.660156 250.03125 233.25 240.992188 C 246.992188 235.492188 256.445312 223.839844 259.703125 210.464844 C 253.507812 220.117188 244.066406 227.050781 233.242188 230.140625 " fill-opacity="1" fill-rule="nonzero"/><path fill="#3d6abc" d="M 259.90625 165.621094 C 261.320312 176.65625 258.796875 187.714844 252.644531 197.121094 C 252.527344 197.300781 252.40625 197.476562 252.285156 197.65625 C 251.761719 198.898438 251.175781 200.125 250.523438 201.335938 C 239.816406 221.320312 215.921875 229.683594 195.375 221.4375 C 196.71875 222.367188 198.128906 223.234375 199.597656 224.023438 C 221.035156 235.539062 247.738281 227.472656 259.234375 206.015625 C 266.230469 192.964844 265.988281 177.964844 259.90625 165.621094 " fill-opacity="1" fill-rule="nonzero"/><path fill="#3d99c4" d="M 256.683594 162.5 C 253.660156 148 243.84375 136.664062 231.261719 131.125 C 239.429688 138.667969 244.597656 148.761719 245.925781 159.925781 C 245.949219 160.140625 245.96875 160.355469 245.992188 160.570312 C 246.386719 161.859375 246.726562 163.175781 247.007812 164.519531 C 251.632812 186.71875 238.699219 208.5 217.667969 215.40625 C 219.292969 215.253906 220.929688 215.011719 222.5625 214.667969 C 246.375 209.695312 261.652344 186.339844 256.683594 162.5 " fill-opacity="1" fill-rule="nonzero"/><path fill="#37b63f" d="M 226.785156 130.808594 C 215.164062 121.648438 200.367188 119.277344 187.171875 123.128906 C 198.5 123.667969 209.148438 128.265625 217.367188 136.214844 C 218.492188 136.945312 219.597656 137.734375 220.671875 138.582031 C 238.472656 152.609375 242.550781 177.617188 230.871094 196.441406 C 232.015625 195.277344 233.113281 194.039062 234.148438 192.726562 C 249.195312 173.59375 245.902344 145.871094 226.785156 130.808594 " fill-opacity="1" fill-rule="nonzero"/></svg>